<mxfile host="app.diagrams.net" modified="2023-05-26T01:38:13.893Z" agent="Mozilla/5.0 (Macintosh; Intel Mac OS X 10_15_7) AppleWebKit/537.36 (KHTML, like Gecko) Chrome/113.0.0.0 Safari/537.36" version="21.3.3" etag="tklgvbQGwtVN5_JC4MsM" type="github">
  <diagram name="Page-1" id="3JDZp8cDVmlCMV3de_HV">
    <mxGraphModel>
      <root>
        <mxCell id="0" />
        <mxCell id="1" parent="0" />
      </root>
    </mxGraphModel>
  </diagram>
</mxfile>
